<svg height="1024" width="1024" xmlns="http://www.w3.org/2000/svg" xmlns:xlink="http://www.w3.org/1999/xlink"><clipPath id="a"><path d="m0 0h1024v1024h-1024z"/></clipPath><g clip-path="url(#a)"><path d="m0 0h1024v1024h-1024z" fill="#fff"/><g fill="#0c79c7"><path d="m579 422.254h-531.213c-33.787 0-47.087-26.554-32.376-52.037l188.423-363.433a9.839 9.839 0 0 1 1.323-1.972c2.321-2.644 4.578-4.269 6.6-4.105 1.733.146 3.43 1.514 5.054 3.649v.018l11.789 33.663 8.338 23.847a31.946 31.946 0 0 0 48.162 15.806 10.783 10.783 0 0 1 16.222 5.9l7.882 25.261 2.75 8.805a32.8 32.8 0 0 0 18.83 20.895 31.928 31.928 0 0 0 42.372-20.121l34.211-109.6a.067.067 0 0 0 .018-.055l.615-1.975a10.42 10.42 0 0 1 1.571-3.113c1.617-2.16 3.319-3.54 5.072-3.673 1.715-.146 3.613 1.022 5.583 2.992.128.128.255.255.383.4l.146.292 190.495 367.402c11.461 19.854 9.66 51.154-32.25 51.154z" transform="translate(198.613 338.182)"/><path d="m579 422.254h-531.213c-33.787 0-47.087-26.554-32.376-52.037l188.423-363.433a9.839 9.839 0 0 1 1.323-1.972c2.321-2.644 4.578-4.269 6.6-4.105 1.733.146 3.43 1.514 5.054 3.649v.018l11.789 33.663 8.338 23.847a31.946 31.946 0 0 0 48.162 15.806 10.783 10.783 0 0 1 16.222 5.9l7.882 25.261 2.75 8.805a32.8 32.8 0 0 0 18.83 20.895 31.928 31.928 0 0 0 42.372-20.121l34.211-109.6a.067.067 0 0 0 .018-.055l.615-1.975a10.42 10.42 0 0 1 1.571-3.113c1.617-2.16 3.319-3.54 5.072-3.673 1.715-.146 3.613 1.022 5.583 2.992.128.128.255.255.383.4l.146.292 190.495 367.402c11.461 19.854 9.66 51.154-32.25 51.154z" transform="translate(198.613 338.182)"/><path d="m98.519 125.937a16.969 16.969 0 0 1 -15.692-10.51c-4.806-11.674-20.314-45.164-34.172-59.739-19.665-20.682-49.318-34.109-49.615-34.243a16.96 16.96 0 0 1 13.815-30.977c1.458.649 35.987 16.194 60.381 41.849 20.727 21.8 38.952 65.322 40.962 70.213a16.968 16.968 0 0 1 -15.68 23.407z" transform="translate(360.489 228.632)"/><path d="m5.96 126.508a16.959 16.959 0 0 1 -16.96-16.96v-103.589a16.96 16.96 0 1 1 33.919 0v103.589a16.959 16.959 0 0 1 -16.959 16.96z" transform="translate(503.872 195.34)"/><path d="m5.974 107.7a16.971 16.971 0 0 1 -16.616-20.4c.282-1.351 7.119-33.371 26.39-57.459 19.171-23.966 49.473-38.58 50.752-39.19a16.96 16.96 0 0 1 14.622 30.606c-.245.118-24.663 11.988-38.888 29.771-14.112 17.64-19.624 42.972-19.678 43.225a16.988 16.988 0 0 1 -16.582 13.447z" transform="translate(559.374 233.258)"/></g></g></svg>